<svg width="38" height="38" viewBox="0 0 38 38" fill="none" xmlns="http://www.w3.org/2000/svg">
<g clip-path="url(#clip0_23_731)">
<path d="M19 3.35149C24.0766 3.35149 24.6777 3.3733 26.6742 3.46054C28.5297 3.54051 29.5316 3.84586 30.1996 4.10031C31.0828 4.43473 31.7211 4.84185 32.3816 5.48889C33.0496 6.14319 33.4578 6.76114 33.7992 7.62628C34.059 8.28058 34.3707 9.26931 34.4523 11.0796C34.5414 13.0425 34.5637 13.6313 34.5637 18.5968C34.5637 23.5695 34.5414 24.1584 34.4523 26.114C34.3707 27.9315 34.059 28.913 33.7992 29.5673C33.4578 30.4324 33.0422 31.0576 32.3816 31.7047C31.7137 32.359 31.0828 32.7588 30.1996 33.0933C29.5316 33.3477 28.5223 33.6531 26.6742 33.733C24.6703 33.8203 24.0691 33.8421 19 33.8421C13.9234 33.8421 13.3223 33.8203 11.3258 33.733C9.47031 33.6531 8.46836 33.3477 7.80039 33.0933C6.91719 32.7588 6.27891 32.3517 5.61836 31.7047C4.95039 31.0504 4.54219 30.4324 4.20078 29.5673C3.94102 28.913 3.6293 27.9243 3.54766 26.114C3.45859 24.1511 3.43633 23.5622 3.43633 18.5968C3.43633 13.6241 3.45859 13.0352 3.54766 11.0796C3.6293 9.26204 3.94102 8.28058 4.20078 7.62628C4.54219 6.76114 4.95781 6.13592 5.61836 5.48889C6.28633 4.83458 6.91719 4.43473 7.80039 4.10031C8.46836 3.84586 9.47774 3.54051 11.3258 3.46054C13.3223 3.3733 13.9234 3.35149 19 3.35149ZM19 0C13.8418 0 13.1961 0.0218101 11.1699 0.109051C9.15117 0.196291 7.76328 0.516173 6.56094 0.974186C5.30664 1.45401 4.24531 2.0865 3.19141 3.12612C2.13008 4.15847 1.48438 5.19808 0.994531 6.41945C0.526953 7.60447 0.200391 8.9567 0.111328 10.9342C0.0222656 12.9261 0 13.5586 0 18.6113C0 23.664 0.0222656 24.2965 0.111328 26.2812C0.200391 28.2587 0.526953 29.6182 0.994531 30.7959C1.48438 32.0246 2.13008 33.0642 3.19141 34.0965C4.24531 35.1289 5.30664 35.7686 6.55352 36.2412C7.76328 36.6992 9.14375 37.0191 11.1625 37.1063C13.1887 37.1936 13.8344 37.2154 18.9926 37.2154C24.1508 37.2154 24.7965 37.1936 26.8227 37.1063C28.8414 37.0191 30.2293 36.6992 31.4316 36.2412C32.6785 35.7686 33.7398 35.1289 34.7938 34.0965C35.8477 33.0642 36.5008 32.0246 36.9832 30.8032C37.4508 29.6182 37.7773 28.2659 37.8664 26.2885C37.9555 24.3038 37.9777 23.6713 37.9777 18.6186C37.9777 13.5659 37.9555 12.9334 37.8664 10.9487C37.7773 8.97124 37.4508 7.61174 36.9832 6.43399C36.5156 5.19808 35.8699 4.15847 34.8086 3.12612C33.7547 2.09377 32.6934 1.45401 31.4465 0.981456C30.2367 0.523443 28.8563 0.203561 26.8375 0.116321C24.8039 0.0218102 24.1582 0 19 0Z" fill="white"/>
<path d="M19 9.05127C13.6117 9.05127 9.24023 13.3333 9.24023 18.6114C9.24023 23.8894 13.6117 28.1715 19 28.1715C24.3883 28.1715 28.7598 23.8894 28.7598 18.6114C28.7598 13.3333 24.3883 9.05127 19 9.05127ZM19 24.8127C15.5043 24.8127 12.6691 22.0356 12.6691 18.6114C12.6691 15.1872 15.5043 12.41 19 12.41C22.4957 12.41 25.3309 15.1872 25.3309 18.6114C25.3309 22.0356 22.4957 24.8127 19 24.8127Z" fill="white"/>
<path d="M31.4242 8.67331C31.4242 9.90922 30.4 10.9052 29.1457 10.9052C27.884 10.9052 26.8672 9.90195 26.8672 8.67331C26.8672 7.4374 27.8914 6.44141 29.1457 6.44141C30.4 6.44141 31.4242 7.44467 31.4242 8.67331Z" fill="white"/>
</g>
<defs>
<clipPath id="clip0_23_731">
<rect width="38" height="37.2226" fill="white"/>
</clipPath>
</defs>
</svg>
