<svg width="81" height="81" viewBox="0 0 81 81" fill="none" xmlns="http://www.w3.org/2000/svg">
<g clip-path="url(#clip0_474_51)">
<path d="M40.1405 0C22.9694 0 8.99994 13.9695 8.99994 31.1406C8.99994 41.4228 14.0102 50.5552 21.7161 56.2294L37.8033 79.7664C38.3307 80.5385 39.2055 81 40.1405 81C41.0755 81 41.9501 80.5385 42.4776 79.7664L58.5649 56.2294C66.2708 50.5552 71.2811 41.4228 71.2811 31.1406C71.2811 13.9695 57.3116 0 40.1405 0ZM43.6939 52.5516C42.5439 52.6866 41.3552 52.7642 40.1403 52.7642C38.9254 52.7642 37.7364 52.6866 36.5867 52.552C26.3036 50.8509 18.4361 41.8979 18.4361 31.1406C18.4361 19.1729 28.1725 9.43659 40.1401 9.43659C52.1077 9.43659 61.8441 19.1729 61.8441 31.1406C61.8445 41.8979 53.9771 50.8509 43.6939 52.5516Z" fill="#5DBA89" stroke="white" stroke-width="2"/>
<g clip-path="url(#clip1_474_51)">
<path d="M45.3333 36.0718V34.628C47.2924 33.5412 48.8889 30.834 48.8889 28.125C48.8889 23.7763 48.8889 20.25 43.5556 20.25C38.2222 20.25 38.2222 23.7763 38.2222 28.125C38.2222 30.834 39.8187 33.5412 41.7778 34.628V36.0718C35.7476 36.5565 31.1111 39.4737 31.1111 43H56C56 39.4737 51.3636 36.5565 45.3333 36.0718Z" fill="#457F60"/>
<path d="M33.088 36.7472C34.624 35.7585 36.5351 35.0077 38.6382 34.5492C38.21 34.0492 37.833 33.5088 37.5129 32.9357C36.6789 31.465 36.235 29.811 36.2222 28.1267C36.2222 25.7747 36.2222 23.5522 37.072 21.734C37.8969 19.97 39.3813 18.8762 41.4951 18.4667C41.0258 16.3755 39.7742 15.0017 36.4444 15.0017C31.1111 15.0017 31.1111 18.528 31.1111 22.8767C31.1111 25.5857 32.7076 28.293 34.6667 29.3797V30.8235C28.6364 31.3082 24 34.2255 24 37.7517H31.7493C32.1529 37.3982 32.5991 37.064 33.088 36.749V36.7472Z" fill="#457F60"/>
</g>
</g>
<defs>
<clipPath id="clip0_474_51">
<rect width="81" height="81" fill="white"/>
</clipPath>
<clipPath id="clip1_474_51">
<rect width="32" height="28" fill="white" transform="translate(24 15)"/>
</clipPath>
</defs>
</svg>
