<svg width="38" height="38" viewBox="0 0 38 38" fill="none" xmlns="http://www.w3.org/2000/svg">
<path d="M37.6215 11.1669C37.6215 11.1669 37.2504 8.60057 36.1074 7.47371C34.6602 5.99062 33.0422 5.98335 32.3 5.89611C26.9859 5.51807 19.0074 5.51807 19.0074 5.51807H18.9926C18.9926 5.51807 11.0141 5.51807 5.7 5.89611C4.95781 5.98335 3.33984 5.99062 1.89258 7.47371C0.749609 8.60057 0.385937 11.1669 0.385937 11.1669C0.385937 11.1669 0 14.184 0 17.1938V20.0145C0 23.0243 0.378516 26.0414 0.378516 26.0414C0.378516 26.0414 0.749609 28.6077 1.88516 29.7346C3.33242 31.2177 5.23242 31.1668 6.07852 31.3267C9.12148 31.6103 19 31.6975 19 31.6975C19 31.6975 26.9859 31.683 32.3 31.3122C33.0422 31.225 34.6602 31.2177 36.1074 29.7346C37.2504 28.6077 37.6215 26.0414 37.6215 26.0414C37.6215 26.0414 38 23.0316 38 20.0145V17.1938C38 14.184 37.6215 11.1669 37.6215 11.1669ZM15.0738 23.4387V12.9771L25.3383 18.2261L15.0738 23.4387Z" fill="white"/>
</svg>
